# xmcd CD database file
#
# Track frame offsets:
#	150
#	16772
#	47295
#	70277
#	95030
#	111392
#	122205
#	148921
#
# Disc length: 2405 seconds
#
# Revision: 0
# Processed by: cddbd v1.5.2PL0 Copyright (c) Steve Scherf et al.
# Submitted via: CDex 1.51
#
DISCID=70096308
DTITLE=Taj Mahal  - Happy Just to Be Like I am
DYEAR=1971
DGENRE=Jazz
TTITLE0=Happy Just to Be Like I am
TTITLE1=Stealin'
TTITLE2=Oh Susanna
TTITLE3=Eighteen Hammers
TTITLE4=Tommorow May Not Be Your Day
TTITLE5=Chevrolet
TTITLE6=West Indian Revelation
TTITLE7=Black Spirit Boogie
EXTD=YEAR: 1971
EXTT0=
EXTT1=
EXTT2=
EXTT3=
EXTT4=
EXTT5=
EXTT6=
EXTT7=
PLAYORDER=
